<?xml version="1.0" encoding="UTF-8"?>
<svg width="106px" height="93px" viewBox="0 0 106 93" version="1.1" xmlns="http://www.w3.org/2000/svg" xmlns:xlink="http://www.w3.org/1999/xlink">
    <!-- Generator: sketchtool 57.1 (101010) - https://sketch.com -->
    <title>FFBE42BE-267D-4398-A73D-297E4069181A@1.5x</title>
    <desc>Created with sketchtool.</desc>
    <g id="ALL" stroke="none" stroke-width="1" fill="none" fill-rule="evenodd">
        <g id="drag-and-drop" transform="translate(-980.000000, -404.000000)" fill="#E4E5F1" fill-rule="nonzero">
            <g id="photo" transform="translate(980.000000, 404.000000)">
                <circle id="Oval" cx="39.0532544" cy="30" r="7"></circle>
                <path d="M98.8414224,56.7219828 C95.4349338,53.5150862 91.1267277,51.4105603 86.4177583,50.8092672 L86.4177583,14.1303879 C86.4177583,10.2219828 84.8147048,6.71443966 82.3099338,4.10883621 C79.704972,1.50323276 76.1982926,0 72.2908499,0 L14.1801628,0 C10.2727201,0 6.7660407,1.60344828 4.16107887,4.10883621 C1.55611703,6.71443966 0.0532544379,10.2219828 0.0532544379,14.1303879 L0.0532544379,60.3297414 L0.0532544379,64.6390086 L0.0532544379,73.9590517 C0.0532544379,77.8674569 1.65630787,81.375 4.16107887,83.9806034 C6.7660407,86.5862069 10.2727201,88.0894397 14.1801628,88.0894397 L70.3872239,88.0894397 C74.094285,91.0959052 78.7030636,93 83.8127964,93 C89.724056,93 95.0341705,90.5948276 98.8414224,86.7866379 C102.648674,82.9784483 105.053254,77.6670259 105.053254,71.7543103 C105.053254,65.8415948 102.648674,60.5301724 98.8414224,56.7219828 Z M5.36336894,14.1303879 C5.36336894,11.7252155 6.36527734,9.52047414 7.96833077,8.01724138 C9.57138421,6.4137931 11.7755827,5.41163793 14.1801628,5.41163793 L72.2908499,5.41163793 C74.69543,5.41163793 76.8996285,6.4137931 78.5026819,8.01724138 C80.1057354,9.62068966 81.1076438,11.825431 81.1076438,14.2306034 L81.1076438,45.4978448 L66.2793995,30.6659483 C65.2774911,29.6637931 63.5742468,29.5635776 62.4721476,30.6659483 L40.1295903,53.1142241 L25.0007735,37.8814655 C23.9988651,36.8793103 22.2956209,36.7790948 21.1935216,37.8814655 L5.36336894,53.9159483 L5.36336894,14.1303879 Z M14.079972,82.9784483 L14.079972,82.7780172 C11.6753918,82.7780172 9.47119337,81.7758621 7.86813993,80.1724138 C6.36527734,78.5689655 5.36336894,76.3642241 5.36336894,73.9590517 L5.36336894,64.6390086 L5.36336894,61.5323276 L23.0971476,43.6939655 L38.2259644,58.8265086 C39.2278728,59.8286638 40.931117,59.8286638 42.0332163,58.8265086 L64.3757735,36.3782328 L79.0036361,51.1099138 C78.7030636,51.2101293 78.4024911,51.3103448 78.1019186,51.4105603 C77.7011552,51.5107759 77.3003918,51.6109914 76.7994376,51.8114224 C76.3986743,51.9116379 75.9979109,52.112069 75.5971476,52.2122845 C75.296575,52.3125 75.0961934,52.4127155 74.7956209,52.6131466 C74.3948575,52.8135776 74.094285,52.9137931 73.7937125,53.1142241 C73.2927583,53.4148707 72.7918041,53.7155172 72.2908499,54.0161638 C71.9902773,54.2165948 71.7898957,54.3168103 71.4893231,54.5172414 C71.2889415,54.6174569 71.1887506,54.7176724 70.9883689,54.8178879 C70.0866514,55.419181 69.2851247,56.1206897 68.5837888,56.9224138 C64.7765369,60.7306034 62.3719567,66.0420259 62.3719567,71.9547414 C62.3719567,73.4579741 62.5723384,74.8609914 62.8729109,76.3642241 C62.9731018,76.7650862 63.0732926,77.0657328 63.1734834,77.4665948 C63.474056,78.46875 63.7746285,79.4709052 64.1753918,80.4730603 L64.1753918,80.5732759 C64.5761552,81.375 64.9769186,82.2769397 65.4778728,82.9784483 L14.079972,82.9784483 L14.079972,82.9784483 Z M94.9339796,82.9784483 C92.0284453,85.8846983 88.1210025,87.5883621 83.7126056,87.5883621 C79.5045903,87.5883621 75.5971476,85.8846983 72.7918041,83.1788793 C72.3910407,82.7780172 71.9902773,82.2769397 71.589514,81.8760776 C71.2889415,81.575431 70.9883689,81.174569 70.6877964,80.8739224 C70.2870331,80.3728448 69.9864605,79.7715517 69.685888,79.1702586 C69.4855063,78.7693966 69.2851247,78.46875 69.084743,78.0678879 C68.8843613,77.5668103 68.6839796,76.9655172 68.5837888,76.3642241 C68.4835979,75.9633621 68.2832163,75.4622845 68.1830254,75.0614224 C67.9826438,74.0592672 67.8824529,72.9568966 67.8824529,71.8545259 C67.8824529,67.4450431 69.685888,63.5366379 72.4912315,60.6303879 C75.296575,57.7241379 79.3042086,56.0204741 83.7126056,56.0204741 C88.1210025,56.0204741 92.0284453,57.8243534 94.9339796,60.6303879 C97.839514,63.5366379 99.5427583,67.4450431 99.5427583,71.8545259 C99.5427583,76.1637931 97.7393231,80.0721983 94.9339796,82.9784483 Z" id="Shape"></path>
                <path d="M84.9854578,60.8034934 C84.782068,60.6026201 84.4769833,60.4017467 84.0702036,60.2008734 C83.7651188,60.1004367 83.4600341,60 83.1549494,60 C83.0532544,60 83.0532544,60 83.0532544,60 C82.9515595,60 82.9515595,60 82.9515595,60 C82.6464748,60 82.34139,60.1004367 82.0363053,60.2008734 C81.7312205,60.30131 81.4261358,60.5021834 81.121051,60.8034934 L74.8159663,67.0305677 C73.7990171,68.0349345 73.7990171,69.7423581 74.8159663,70.8471616 C75.8329155,71.8515284 77.561729,71.8515284 78.6803731,70.8471616 L80.3074917,69.2401747 L80.3074917,80.2882096 C80.3074917,81.7947598 81.5278307,83 83.0532544,83 C84.5786782,83 85.7990171,81.7947598 85.7990171,80.2882096 L85.7990171,69.2401747 L87.4261358,70.8471616 C88.4430849,71.8515284 90.1718985,71.8515284 91.2905426,70.8471616 C92.3074917,69.8427948 92.3074917,68.1353712 91.2905426,67.0305677 L84.9854578,60.8034934 Z" id="Path"></path>
            </g>
        </g>
    </g>
</svg>