<svg width="30" height="30" viewBox="0 0 30 30" fill="none" xmlns="http://www.w3.org/2000/svg">
<path d="M15 11.25L14.2557 11.9179C14.4454 12.1292 14.716 12.25 15 12.25C15.284 12.25 15.5546 12.1292 15.7443 11.9179L15 11.25ZM15 29.75C15.5523 29.75 16 29.3023 16 28.75C16 28.1977 15.5523 27.75 15 27.75V29.75ZM15 15.25C14.4477 15.25 14 15.6977 14 16.25C14 16.8023 14.4477 17.25 15 17.25V15.25ZM17.75 5C17.75 5.26759 17.6116 5.73856 17.2749 6.39264C16.9549 7.0144 16.5173 7.68632 16.0631 8.3178C15.6116 8.94565 15.1579 9.51403 14.816 9.92652C14.6455 10.1322 14.5038 10.2979 14.4054 10.4115C14.3563 10.4682 14.318 10.5118 14.2924 10.5408C14.2796 10.5552 14.27 10.5661 14.2639 10.573C14.2608 10.5765 14.2585 10.579 14.2571 10.5805C14.2565 10.5813 14.256 10.5818 14.2558 10.5821C14.2556 10.5822 14.2556 10.5823 14.2556 10.5823C14.2556 10.5823 14.2556 10.5823 14.2556 10.5823C14.2557 10.5822 14.2557 10.5821 15 11.25C15.7443 11.9179 15.7444 11.9178 15.7445 11.9177C15.7445 11.9176 15.7447 11.9175 15.7448 11.9173C15.745 11.9171 15.7453 11.9168 15.7456 11.9164C15.7463 11.9156 15.7472 11.9146 15.7483 11.9134C15.7505 11.9109 15.7537 11.9074 15.7577 11.9029C15.7657 11.8939 15.7771 11.881 15.7918 11.8644C15.8212 11.8311 15.8634 11.7829 15.9168 11.7213C16.0235 11.5982 16.1748 11.4213 16.3558 11.2028C16.7171 10.7671 17.2009 10.1613 17.6869 9.4855C18.1702 8.81336 18.6701 8.05222 19.0532 7.30795C19.4196 6.596 19.75 5.76794 19.75 5H17.75ZM15 11.25C15.7443 10.5821 15.7443 10.5822 15.7444 10.5823C15.7444 10.5823 15.7444 10.5823 15.7444 10.5823C15.7444 10.5823 15.7444 10.5822 15.7442 10.5821C15.744 10.5818 15.7435 10.5813 15.7429 10.5805C15.7415 10.579 15.7392 10.5765 15.7361 10.573C15.73 10.5661 15.7204 10.5552 15.7076 10.5408C15.682 10.5118 15.6437 10.4682 15.5946 10.4115C15.4962 10.2979 15.3545 10.1322 15.184 9.92652C14.8421 9.51403 14.3884 8.94565 13.9369 8.3178C13.4827 7.68632 13.0451 7.0144 12.7251 6.39264C12.3884 5.73856 12.25 5.26759 12.25 5H10.25C10.25 5.76794 10.5804 6.596 10.9468 7.30795C11.3299 8.05222 11.8298 8.81336 12.3131 9.4855C12.7991 10.1613 13.2829 10.7671 13.6442 11.2028C13.8252 11.4213 13.9765 11.5982 14.0832 11.7213C14.1366 11.7829 14.1788 11.8311 14.2082 11.8644C14.2229 11.881 14.2343 11.8939 14.2423 11.9029C14.2463 11.9074 14.2495 11.9109 14.2517 11.9134C14.2528 11.9146 14.2537 11.9156 14.2544 11.9164C14.2547 11.9168 14.255 11.9171 14.2552 11.9173C14.2553 11.9175 14.2555 11.9176 14.2555 11.9177C14.2556 11.9178 14.2557 11.9179 15 11.25ZM12.25 5C12.25 3.48122 13.4812 2.25 15 2.25V0.25C12.3766 0.25 10.25 2.37665 10.25 5H12.25ZM15 2.25C16.5188 2.25 17.75 3.48122 17.75 5H19.75C19.75 2.37665 17.6234 0.25 15 0.25V2.25ZM8.125 23.5H21.875V21.5H8.125V23.5ZM8.125 29.75H15V27.75H8.125V29.75ZM21.875 15.25H15V17.25H21.875V15.25ZM21.875 17.25C23.0486 17.25 24 18.2014 24 19.375H26C26 17.0968 24.1532 15.25 21.875 15.25V17.25ZM21.875 23.5C24.1532 23.5 26 21.6532 26 19.375H24C24 20.5486 23.0486 21.5 21.875 21.5V23.5ZM8.125 21.5C5.84683 21.5 4 23.3468 4 25.625H6C6 24.4514 6.95139 23.5 8.125 23.5V21.5ZM8.125 27.75C6.9514 27.75 6 26.7986 6 25.625H4C4 27.9032 5.84683 29.75 8.125 29.75V27.75Z" fill="#4F4F4F"/>
</svg>
