<?xml version="1.0" encoding="UTF-8"?>
<svg width="52px" height="33px" viewBox="0 0 52 33" version="1.1" xmlns="http://www.w3.org/2000/svg" xmlns:xlink="http://www.w3.org/1999/xlink">
    <!-- Generator: Sketch 57.1 (83088) - https://sketch.com -->
    <title>myle-logo</title>
    <desc>Created with Sketch.</desc>
    <g id="Page-1" stroke="none" stroke-width="1" fill="none" fill-rule="evenodd" fill-opacity="0.517482517">
        <g id="Documents" transform="translate(-41.000000, -9.000000)" fill="#FFFFFF" fill-rule="nonzero">
            <g id="myle-logo" transform="translate(41.000000, 9.000000)">
                <path d="M37.1594547,17.5892837 L37.1565877,15.287882 C37.1530908,12.4734606 39.432098,10.1919213 42.2468967,10.1919213 L47.8367643,10.1919213 C50.1067634,10.1919213 51.9492498,12.0318724 51.9520733,14.3015671 L51.955754,17.260512 C51.9571092,18.3499655 51.074913,19.2331418 49.9853135,19.2331418 L40.449657,19.2331418 L40.4502704,19.7262993 C40.4515127,20.7249649 41.2622067,21.5345435 42.2610064,21.5345435 L50.316992,21.5345435 C51.2249916,21.5345435 51.9619863,22.2705239 51.963117,23.1784018 C51.9642449,24.0862797 51.2290814,24.82226 50.3210819,24.82226 L42.2650961,24.82226 C39.4502973,24.82226 37.1656139,22.5407207 37.1621129,19.7262993 L37.1594547,17.5892837 Z M10.3513607,9.86314965 L12.3242552,9.86314965 C15.1390539,9.86314965 17.4237374,12.144689 17.4272383,14.9591104 L17.4372595,23.0140159 C17.4383875,23.9218938 16.7032239,24.6578742 15.7952244,24.6578742 C14.8872247,24.6578742 14.1502302,23.9218938 14.1491008,23.0140159 L14.1390808,14.9591104 C14.1378385,13.9604448 13.3271445,13.1508662 12.328345,13.1508662 L10.3554506,13.1508662 L10.3677197,23.0140159 C10.3688491,23.9218938 9.63368551,24.6578742 8.72568583,24.6578742 C7.81768631,24.6578742 7.08069159,23.9218938 7.07956235,23.0140159 L7.06729308,13.1508662 L5.09439862,13.1508662 C4.09559912,13.1508662 3.28691904,13.9604448 3.28816134,14.9591104 L3.29818126,23.0140159 C3.29931067,23.9218938 2.56414711,24.6578742 1.65614742,24.6578742 C0.748147903,24.6578742 0.0111531884,23.9218938 0.0100237792,23.0140159 L1.09160524e-15,14.9591104 C-0.00349709023,12.144689 2.27551009,9.86314965 5.09030881,9.86314965 L10.3513607,9.86314965 Z M32.6985621,0 C33.6065616,0 34.3435561,0.735980377 34.3446855,1.64385836 L34.3712702,23.0140159 C34.3723983,23.9218938 33.6372348,24.6578742 32.7292351,24.6578742 C31.8212355,24.6578742 31.0842408,23.9218938 31.0831114,23.0140159 L31.0565268,1.64385836 C31.0553988,0.735980377 31.7905624,0 32.6985621,0 Z M18.7770673,12.2967164 C18.3400445,11.5003826 18.6309589,10.5013936 19.4268425,10.065412 C20.2227262,9.6294305 21.2221944,9.92155355 21.659217,10.7178873 L28.2272413,22.2483598 C28.8900544,23.4119591 29.2394062,24.7273819 29.2410711,26.0657581 L29.2475413,31.2661305 C29.2486695,32.1740004 28.5135258,32.9099741 27.6055509,32.9099741 C26.6975761,32.9099741 25.9606015,32.1740004 25.9594721,31.2661305 L25.9529712,26.040081 C25.9520131,25.2698372 25.7505978,24.5128514 25.3685266,23.8435445 L18.7770673,12.2967164 Z M48.6659608,15.9454253 L48.6639158,14.3015671 C48.6633512,13.8476282 48.2948538,13.4796378 47.8408541,13.4796378 L42.2509865,13.4796378 C41.2521868,13.4796378 40.4435069,14.2892164 40.4447478,15.287882 L40.4455672,15.9454253 L48.6659608,15.9454253 Z" id="Combined-Shape-Copy-7"></path>
            </g>
        </g>
    </g>
</svg>