<?xml version="1.0" encoding="UTF-8"?>
<svg width="60px" height="38px" viewBox="0 0 60 38" version="1.1" xmlns="http://www.w3.org/2000/svg" xmlns:xlink="http://www.w3.org/1999/xlink">
    <!-- Generator: Sketch 52.2 (67145) - http://www.bohemiancoding.com/sketch -->
    <title>Combined-Shape-Copy-7</title>
    <desc>Created with Sketch.</desc>
    <g id="MYLE-RIDES-SUPPORT" stroke="none" stroke-width="1" fill="none" fill-rule="evenodd">
        <g id="Upcoming-1" transform="translate(-17.000000, -13.000000)" fill="#393A46" fill-rule="nonzero">
            <g id="Group" transform="translate(0.000000, 1.000000)">
                <path d="M59.9067271,32.3097328 L59.9034214,29.6523845 C59.899379,26.4026702 62.5308691,23.7682563 65.7810191,23.7682563 L72.2354443,23.7682563 C74.8565332,23.7682563 76.9839881,25.8927837 76.9872482,28.5135211 L76.9914982,31.9301116 C76.993063,33.1880655 75.9744218,34.2078385 74.7162992,34.2078385 L63.705809,34.2078385 L63.7065174,34.7772702 C63.7079518,35.9303946 64.6440319,36.8651868 65.7973111,36.8651868 L75.0992769,36.8651868 C76.1477123,36.8651868 76.9986944,37.7149977 76.9999985,38.7632927 C77.0013024,39.8115876 76.1524347,40.6613985 75.1039993,40.6613985 L65.8020333,40.6613985 C62.5518833,40.6613985 59.913839,38.0269846 59.9097965,34.7772702 L59.9067271,32.3097328 Z M28.9523554,23.3886351 L31.2303879,23.3886351 C34.4805379,23.3886351 37.1185822,26.023049 37.1226246,29.2727634 L37.1341943,38.5734819 C37.1354982,39.621777 36.2866305,40.4715879 35.2381951,40.4715879 C34.1897595,40.4715879 33.3387776,39.621777 33.3374735,38.5734819 L33.3259038,29.2727634 C33.3244694,28.119639 32.3883892,27.1848468 31.2351103,27.1848468 L28.9570778,27.1848468 L28.9712445,38.5734819 C28.9725486,39.621777 28.1236809,40.4715879 27.0752453,40.4715879 C26.0268099,40.4715879 25.1758278,39.621777 25.1745239,38.5734819 L25.160357,27.1848468 L22.8823245,27.1848468 C21.7290455,27.1848468 20.7952908,28.119639 20.7967253,29.2727634 L20.8082949,38.5734819 C20.809599,39.621777 19.9607313,40.4715879 18.9122957,40.4715879 C17.8638603,40.4715879 17.0128782,39.621777 17.0115741,38.5734819 L17.0000047,29.2727634 C16.995962,26.023049 19.6274522,23.3886351 22.8776022,23.3886351 L28.9523554,23.3886351 Z M54.7558899,12 C55.8043253,12 56.6553072,12.8498109 56.6566113,13.8981059 L56.6873062,38.5734819 C56.6886103,39.621777 55.8397425,40.4715879 54.7913069,40.4715879 C53.7428715,40.4715879 52.8918894,39.621777 52.8905853,38.5734819 L52.8598905,13.8981059 C52.8585866,12.8498109 53.7074543,12 54.7558899,12 Z M38.6812251,26.1985898 C38.1766101,25.279091 38.5125189,24.1255931 39.4314979,23.6221804 C40.350477,23.1187678 41.5045282,23.4560721 42.0091429,24.3755709 L49.5930116,37.6894056 C50.3583388,39.0329732 50.7617232,40.551846 50.7636455,42.0972223 L50.7711151,48.1019111 C50.7724191,49.1501968 49.9235744,50 48.8751674,50 C47.8267606,50 46.9758016,49.1501968 46.9744976,48.1019111 L46.9669912,42.0675739 C46.965885,41.1782002 46.7333177,40.3041351 46.2921534,39.5313098 L38.6812251,26.1985898 Z M73.1928887,30.4116268 L73.1905274,28.5135211 C73.1898754,27.9893736 72.7643844,27.564468 72.2401667,27.564468 L65.7857414,27.564468 C64.6324623,27.564468 63.6987078,28.4992601 63.7001422,29.6523845 L63.7010867,30.4116268 L73.1928887,30.4116268 Z" id="Combined-Shape-Copy-7"></path>
            </g>
        </g>
    </g>
</svg>